<?xml version="1.0" encoding="UTF-8" standalone="no"?>
<svg
   xmlns:dc="http://purl.org/dc/elements/1.1/"
   xmlns:cc="http://creativecommons.org/ns#"
   xmlns:rdf="http://www.w3.org/1999/02/22-rdf-syntax-ns#"
   xmlns:svg="http://www.w3.org/2000/svg"
   xmlns="http://www.w3.org/2000/svg"
   viewBox="0 0 159.50667 143.89333"
   height="143.89333"
   width="159.50667"
   xml:space="preserve"
   id="svg2"
   version="1.1"><metadata
     id="metadata8"><rdf:RDF><cc:Work
         rdf:about=""><dc:format>image/svg+xml</dc:format><dc:type
           rdf:resource="http://purl.org/dc/dcmitype/StillImage" /></cc:Work></rdf:RDF></metadata><defs
     id="defs6" /><g
     transform="matrix(1.3333333,0,0,-1.3333333,0,143.89333)"
     id="g10"><g
       transform="scale(0.1)"
       id="g12"><path
         id="path14"
         style="fill:#4a9a90;fill-opacity:1;fill-rule:nonzero;stroke:none"
         d="m 1091.93,518.906 c 0,-270.656 -219.41,-490.0662 -490.067,-490.0662 -270.656,0 -490.066,219.4102 -490.066,490.0662 0,270.657 219.41,490.064 490.066,490.064 270.657,0 490.067,-219.407 490.067,-490.064" /><path
         id="path16"
         style="fill:#a7d6ca;fill-opacity:1;fill-rule:nonzero;stroke:none"
         d="M 1091.8,540.492 C 1088.93,334.727 957.219,147.961 761.785,80.5273 577.477,16.9297 367.785,71.3984 237.477,216.199 172.645,288.242 130.055,379.152 116.582,475.156 102.523,575.355 138.418,682.141 193.715,765.176 302.738,928.895 504.254,1012.8 697.324,974.68 924.074,929.902 1088.6,727.137 1091.8,497.316 c 0.14,-9.496 0.33,8.11 0.35,8.969 0.18,11.395 0.07,22.813 -0.09,34.207 C 1089.08,753.867 955.25,946.574 749.18,1011.44 540.945,1076.99 308.559,992.848 190.105,809.758 96.2539,664.688 83.4922,455.254 152.914,297.105 240.367,97.8828 455.176,-21.6289 670.609,8.62109 914.344,42.8516 1088.67,254.84 1092.06,497.316 c 0.16,11.395 0.3,22.813 0.09,34.207 -0.05,2.301 -0.22,17.903 -0.35,8.969" /><path
         id="path18"
         style="fill:#ee292a;fill-opacity:1;fill-rule:nonzero;stroke:none"
         d="m 866.59,442.418 c 0,0 -75.731,-49.898 -97.824,-26.195 v 29.222 c 0,0 111.414,18.106 97.824,-3.027" /><path
         id="path20"
         style="fill:#ee292a;fill-opacity:1;fill-rule:nonzero;stroke:none"
         d="m 330.332,436.203 c 0,0 75.727,-49.894 97.82,-26.195 v 29.226 c 0,0 -111.414,18.102 -97.82,-3.031" /><path
         id="path22"
         style="fill:#ffffff;fill-opacity:1;fill-rule:nonzero;stroke:none"
         d="m 403.902,419.836 c 0,-11.27 -9.136,-20.402 -20.402,-20.402 -11.27,0 -20.402,9.132 -20.402,20.402 0,11.266 9.132,20.402 20.402,20.402 11.266,0 20.402,-9.136 20.402,-20.402" /><path
         id="path24"
         style="fill:#ffffff;fill-opacity:1;fill-rule:nonzero;stroke:none"
         d="m 838.652,425.035 c 0,-11.265 -9.132,-20.402 -20.398,-20.402 -11.27,0 -20.402,9.137 -20.402,20.402 0,11.27 9.132,20.403 20.402,20.403 11.266,0 20.398,-9.133 20.398,-20.403" /><path
         id="path26"
         style="fill:#ffffff;fill-opacity:1;fill-rule:nonzero;stroke:none"
         d="m 378.668,417.238 c -1.102,-19.394 -0.625,-38.847 0.684,-58.203 1.355,-19.355 3.711,-38.64 7.207,-57.703 6.855,-38.102 18,-75.637 35.726,-110.035 17.637,-34.324 42.363,-65.27 73.645,-87.848 31.172,-22.7693 68.304,-36.3592 106.312,-42.3084 l -0.336,0.0313 c 9.239,0.1875 18.793,1.75 28.024,3.789 9.269,2.0977 18.414,4.8711 27.242,8.4375 8.851,3.4922 17.473,7.6172 25.691,12.4454 8.328,4.6484 16.121,10.1992 23.66,16.0312 7.52,5.879 14.551,12.355 21.258,19.16 6.594,6.91 12.848,14.153 18.598,21.805 5.672,7.683 11.207,15.527 15.945,23.851 5.102,8.118 9.215,16.797 13.551,25.34 3.824,8.797 7.898,17.492 11.016,26.582 3.554,8.926 6.234,18.157 9.07,27.332 2.766,9.2 4.844,18.598 7.215,27.91 1.777,9.446 3.933,18.829 5.41,28.333 1.336,9.523 3.23,18.98 4.176,28.562 0.941,9.574 2.359,19.117 2.914,28.734 0.578,9.614 1.457,19.219 1.785,28.848 l 0.793,28.906 -0.156,-28.925 c -0.118,-9.645 -0.785,-19.274 -1.149,-28.915 -0.344,-9.648 -1.554,-19.238 -2.289,-28.863 -0.754,-9.633 -2.394,-19.164 -3.59,-28.75 -1.41,-9.558 -3.504,-19.008 -5.222,-28.515 -2.313,-9.383 -4.328,-18.856 -7.043,-28.137 -2.789,-9.266 -5.418,-18.586 -8.934,-27.617 -3.074,-9.192 -7.117,-18.004 -10.922,-26.918 -4.312,-8.672 -8.406,-17.481 -13.515,-25.743 -4.735,-8.468 -10.286,-16.472 -15.989,-24.32 -5.781,-7.812 -12.082,-15.226 -18.746,-22.312 -6.773,-6.981 -13.894,-13.641 -21.523,-19.6996 -7.649,-6.0117 -15.571,-11.7421 -24.051,-16.5625 -8.367,-5 -17.16,-9.289 -26.207,-12.9414 -18.133,-7.2382 -37.176,-12.25 -57.094,-12.6875 l -0.14,-0.0117 -0.204,0.0391 c -38.578,6.3008 -76.351,20.4101 -107.933,43.8246 -31.707,23.211 -56.57,54.828 -74.149,89.632 -17.625,34.903 -28.73,72.743 -35.132,111.122 -3.129,19.218 -5.106,38.609 -6.078,58.031 -0.922,19.418 -1.008,38.898 0.48,58.269" /><path
         id="path28"
         style="fill:#fcd4c4;fill-opacity:1;fill-rule:nonzero;stroke:none"
         d="m 401.793,750.328 v 161.008 h 37.715 V 740.117 c 0,-9.254 -1.324,-16.863 -3.965,-22.816 -2.641,-5.949 -6.969,-11.094 -12.973,-15.446 -6.004,-4.343 -14.375,-8.593 -25.097,-12.757 l -15.137,34.015 c 5.602,2.453 9.809,4.961 12.609,7.52 2.805,2.543 4.645,5.281 5.528,8.219 0.879,2.925 1.32,6.75 1.32,11.476" /><path
         id="path30"
         style="fill:#fcd4c4;fill-opacity:1;fill-rule:nonzero;stroke:none"
         d="m 544.723,761.668 c 4.64,6.418 6.965,14.926 6.965,25.508 0,10.582 -2.282,19.281 -6.844,26.086 -4.567,6.801 -10.614,10.199 -18.141,10.199 -7.844,0 -14.09,-3.258 -18.734,-9.777 C 503.32,807.16 501,798.516 501,787.742 c 0,-10.765 2.285,-19.41 6.848,-25.937 4.562,-6.516 10.691,-9.774 18.379,-9.774 7.683,0 13.851,3.207 18.496,9.637 z m 37.593,-12.758 c -5.523,-10.773 -13.171,-19.043 -22.941,-24.805 -9.77,-5.761 -20.898,-8.644 -33.391,-8.644 -12.652,0 -23.781,2.789 -33.39,8.367 -9.61,5.57 -17.094,13.789 -22.461,24.656 -5.367,10.864 -8.043,23.957 -8.043,39.258 0,14.742 2.758,27.594 8.281,38.551 5.527,10.965 13.129,19.375 22.82,25.23 9.692,5.856 20.782,8.786 33.274,8.786 12.652,0 23.82,-2.883 33.512,-8.645 9.691,-5.762 17.214,-14.129 22.578,-25.086 5.367,-10.965 8.05,-24.094 8.05,-39.402 0,-14.735 -2.761,-27.488 -8.289,-38.266" /><path
         id="path32"
         style="fill:#fcd4c4;fill-opacity:1;fill-rule:nonzero;stroke:none"
         d="m 617.75,750.328 v 161.008 h 37.711 V 740.117 c 0,-9.254 -1.32,-16.863 -3.961,-22.816 -2.641,-5.949 -6.969,-11.094 -12.973,-15.446 -6.004,-4.343 -14.375,-8.593 -25.101,-12.757 l -15.133,34.015 c 5.602,2.453 9.809,4.961 12.609,7.52 2.801,2.543 4.645,5.281 5.528,8.219 0.875,2.925 1.32,6.75 1.32,11.476" /><path
         id="path34"
         style="fill:#fcd4c4;fill-opacity:1;fill-rule:nonzero;stroke:none"
         d="m 725.129,763.082 v -44.5 h -37.484 v 197.004 l 37.484,3.117 V 811.27 l 46.84,48.761 21.859,-30.898 -31.715,-30.617 40.836,-79.934 h -41.312 l -26.188,54.711 -10.32,-10.211" /><path
         id="path36"
         style="fill:#ee292a;fill-opacity:1;fill-rule:nonzero;stroke:none"
         d="m 830.094,718.582 c -5.606,0 -10.321,2.266 -14.172,6.801 -3.84,4.535 -5.762,10.019 -5.762,16.437 0,6.614 1.922,12.192 5.762,16.727 3.851,4.535 8.566,6.805 14.172,6.805 5.605,0 10.297,-2.27 14.058,-6.805 3.762,-4.535 5.649,-10.113 5.649,-16.727 0,-6.418 -1.887,-11.902 -5.649,-16.437 -3.761,-4.535 -8.453,-6.801 -14.058,-6.801" /><path
         id="path38"
         style="fill:#231f20;fill-opacity:1;fill-rule:nonzero;stroke:none"
         d="m 1120.61,659.281 c -9.42,-5.847 -21.52,1.731 -19.61,12.375 3.34,18.703 13.23,53.926 40.12,119.215 37.54,91.121 30.63,150.203 4.93,190.707 -7.28,11.481 -25.48,5.25 -23.63,-8.086 3.1,-22.383 4.83,-51.695 0.96,-84.594 -1.44,-12.304 -19.19,-14.914 -24.31,-3.558 -2.56,5.699 -5.07,12.945 -7.31,22.156 -8.27,33.965 -49.09,115.474 -119.678,168.894 -12.066,9.13 -27.473,-6.29 -17.687,-17.68 39.125,-45.52 86.865,-114.183 100.335,-189.878 15.46,-86.863 9,-125.519 2.5,-141.996 -3.16,-8.004 -13.75,-10.672 -20.29,-4.887 -9.4,8.301 -21.32,27.192 -26.95,70.192 -6.8,52.062 -20.365,109.089 -50.334,149.273 -8.922,11.965 -28.074,1.191 -21.976,-12.32 10.601,-23.496 20.324,-52.883 22.906,-85.129 0.027,-0.332 0.047,-0.668 0.051,-1 0.039,-3.094 0.093,-19.645 -3.051,-34.231 -1.75,-8.129 -11.465,-12.05 -18.891,-7.855 -9.293,5.258 -21.484,14.476 -31.293,29.926 -1.203,1.894 -2.406,3.679 -3.605,5.359 -9.109,12.789 -29.754,0.063 -21.496,-13.254 4.207,-6.777 9.847,-14.148 17.387,-21.898 33.941,-34.86 79.453,-86.832 79.453,-86.832 0,0 57.849,-57.047 20.824,-87.469 -35.711,-29.348 -55.637,-45.719 -123.449,-50.824 -6.305,-0.477 -12.172,3.57 -13.453,9.547 -0.481,2.238 -0.887,4.972 -1.168,8.316 -1.543,18.383 -9.258,86.836 -54.766,90.004 0,0 -8.039,-1.981 -0.84,-10.695 7.195,-8.719 18.184,-43.586 14.016,-70.051 -3.242,-20.606 -69.825,-42.129 -99.137,-50.649 -3.758,-1.089 -7.781,-0.328 -10.977,1.871 -97.086,66.805 -182.066,28.973 -230.968,-7.292 -3.317,-2.458 -7.543,-3.231 -11.535,-2.024 -31.805,9.637 -88.747,29.434 -91.743,48.453 -4.168,26.465 6.821,61.332 14.02,70.047 7.195,8.719 -0.84,10.699 -0.84,10.699 -45.512,-3.172 -53.223,-71.625 -54.766,-90.004 -0.281,-3.343 -0.691,-6.082 -1.171,-8.32 -1.282,-5.973 -7.145,-10.019 -13.454,-9.543 -67.812,5.106 -87.738,21.477 -123.449,50.82 -37.023,30.426 20.828,87.469 20.828,87.469 0,0 45.508,51.977 79.45,86.836 7.539,7.746 13.179,15.117 17.386,21.899 8.262,13.312 -12.386,26.039 -21.496,13.25 -1.199,-1.68 -2.402,-3.465 -3.605,-5.36 -9.809,-15.445 -21.996,-24.668 -31.293,-29.922 -7.422,-4.199 -17.141,-0.273 -18.891,7.852 -3.141,14.59 -3.09,31.14 -3.051,34.234 0.008,0.332 0.024,0.668 0.051,1 2.586,32.242 12.305,61.633 22.906,85.125 6.098,13.516 -13.054,24.285 -21.976,12.324 -29.969,-40.183 -43.528,-97.214 -50.336,-149.277 -5.621,-42.996 -17.547,-61.891 -26.942,-70.187 -6.55,-5.786 -17.132,-3.121 -20.293,4.882 -6.5,16.481 -12.96,55.137 2.497,142 13.468,75.696 61.21,144.349 100.335,189.879 9.79,11.39 -5.617,26.81 -17.683,17.68 -70.594,-53.42 -111.41,-134.93 -119.676,-168.895 -2.242,-9.214 -4.7538,-16.46 -7.3202,-22.156 -5.1172,-11.359 -22.8633,-8.75 -24.3086,3.555 -3.8672,32.898 -2.1406,62.215 0.9648,84.598 1.8516,13.336 -16.3515,19.562 -23.6328,8.086 C 24.5039,931.434 17.5938,872.352 55.1289,781.23 82.0195,715.941 91.9102,680.719 95.2539,662.016 97.1563,651.371 85.0586,643.793 75.6406,649.641 56.6523,661.434 38.2461,684.289 23.5625,706.238 15.6211,718.109 -3.23047,709.949 0.476563,696.285 32.918,576.688 154.336,503.563 286.602,507.43 c 79.261,2.316 120.562,-8.668 140.925,-23.856 -1.125,-4.144 -2.226,-8.816 -3.226,-13.828 -19.403,9.91 -55.418,22.07 -87.817,-1.18 0,0 -42.808,-26.461 6.586,-30.691 36.336,-3.117 38.868,-18.207 61.254,-10.812 7.801,2.578 16.211,-2.129 16.957,-10.051 1.766,-18.735 6.981,-38.66 18.074,-57.946 37.454,-65.078 72.969,-281.2847 168.403,-277.0347 83.445,-0.2149 115.597,212.2227 152.894,277.0347 12.606,21.907 17.618,44.645 18.606,65.52 0.367,7.762 8.152,13.172 15.945,11.203 19.422,-4.906 23.524,8.774 57.977,11.727 49.394,4.234 6.586,30.695 6.586,30.695 -31.649,22.707 -66.668,11.637 -86.368,1.875 -0.441,1.742 -0.886,3.422 -1.332,5.031 -1.492,5.36 0.719,11.168 5.758,13.848 22.731,12.098 62.969,20.117 131.824,18.105 132.262,-3.867 253.682,69.258 286.122,188.856 3.71,13.664 -15.14,21.824 -23.08,9.957 -14.69,-21.953 -33.09,-44.805 -52.08,-56.602" /><path
         id="path40"
         style="fill:#fcd4c4;fill-opacity:1;fill-rule:nonzero;stroke:none"
         d="m 464.465,408.715 c 0,0 -34.5,-72.676 80.668,-48.512 0,0 -31.738,58.36 -80.668,48.512" /><path
         id="path42"
         style="fill:#4a9a90;fill-opacity:1;fill-rule:nonzero;stroke:none"
         d="m 443.82,406.77 c 0,0 7.633,4.265 20.578,5.949 3.223,0.488 6.75,0.808 10.508,0.75 3.762,0.191 7.731,-0.324 11.84,-0.731 4.016,-0.941 8.375,-1.281 12.445,-2.972 l 6.239,-2.227 5.996,-2.976 c 4.09,-1.86 7.445,-4.918 11.082,-7.364 3.5,-2.636 6.246,-6.043 9.234,-8.89 2.699,-3.129 4.836,-6.539 7.028,-9.579 2.214,-3.031 3.429,-6.433 4.925,-9.3 3.114,-5.703 4.118,-11.11 5.215,-14.657 0.903,-3.605 1.418,-5.668 1.418,-5.668 0,0 -1.183,1.778 -3.25,4.887 -0.961,1.555 -2.133,3.442 -3.476,5.61 -1.18,2.234 -3.036,4.437 -4.852,6.914 -1.953,2.39 -3.617,5.273 -6.004,7.8 -2.348,2.52 -4.824,5.176 -7.387,7.926 -2.882,2.367 -5.675,5.012 -8.765,7.328 -3.293,2.035 -6.27,4.688 -9.922,6.2 l -5.184,2.777 -5.461,2.105 c -3.558,1.559 -7.347,2.332 -10.914,3.453 -3.679,0.571 -7.203,1.665 -10.668,1.942 -3.441,0.465 -6.73,0.82 -9.804,0.965 -6.133,0.355 -11.348,0.301 -15.016,0.117 -3.676,-0.113 -5.805,-0.359 -5.805,-0.359" /><path
         id="path44"
         style="fill:#231f20;fill-opacity:1;fill-rule:nonzero;stroke:none"
         d="m 520.484,381.828 c -1.355,-11.398 -11.515,-19.562 -22.695,-18.234 -11.18,1.328 -19.144,11.644 -17.793,23.043 1.356,11.394 11.516,19.558 22.695,18.234 11.18,-1.328 19.145,-11.644 17.793,-23.043" /><path
         id="path46"
         style="fill:#fcd4c4;fill-opacity:1;fill-rule:nonzero;stroke:none"
         d="m 737.477,408.715 c 0,0 34.5,-72.676 -80.668,-48.512 0,0 31.738,58.36 80.668,48.512" /><path
         id="path48"
         style="fill:#4a9a90;fill-opacity:1;fill-rule:nonzero;stroke:none"
         d="m 758.121,406.77 c 0,0 -2.133,0.246 -5.808,0.359 -3.665,0.184 -8.883,0.238 -15.016,-0.117 -3.074,-0.145 -6.359,-0.5 -9.805,-0.965 -3.465,-0.277 -6.984,-1.371 -10.668,-1.942 -3.566,-1.121 -7.351,-1.894 -10.914,-3.453 l -5.457,-2.105 -5.187,-2.777 c -3.653,-1.512 -6.629,-4.165 -9.918,-6.2 -3.09,-2.316 -5.883,-4.961 -8.77,-7.328 -2.558,-2.75 -5.035,-5.406 -7.387,-7.926 -2.382,-2.527 -4.05,-5.41 -6,-7.8 -1.82,-2.477 -3.675,-4.68 -4.851,-6.914 -1.348,-2.168 -2.516,-4.055 -3.481,-5.61 -2.066,-3.109 -3.246,-4.887 -3.246,-4.887 0,0 0.516,2.063 1.414,5.668 1.102,3.547 2.102,8.954 5.215,14.657 1.496,2.867 2.711,6.269 4.93,9.3 2.187,3.04 4.324,6.45 7.023,9.579 2.989,2.847 5.735,6.254 9.235,8.89 3.636,2.446 6.992,5.504 11.086,7.364 l 5.992,2.976 6.238,2.227 c 4.07,1.691 8.43,2.031 12.445,2.972 4.11,0.407 8.079,0.922 11.84,0.731 3.762,0.058 7.285,-0.262 10.508,-0.75 12.945,-1.684 20.582,-5.949 20.582,-5.949" /><path
         id="path50"
         style="fill:#231f20;fill-opacity:1;fill-rule:nonzero;stroke:none"
         d="m 681.457,381.828 c 1.352,-11.398 11.512,-19.562 22.691,-18.234 11.18,1.328 19.149,11.644 17.793,23.043 -1.351,11.394 -11.511,19.558 -22.691,18.234 -11.18,-1.328 -19.148,-11.644 -17.793,-23.043" /><path
         id="path52"
         style="fill:#fcd4c4;fill-opacity:1;fill-rule:nonzero;stroke:none"
         d="m 513.559,371.313 c 0,-4.551 -3.692,-8.243 -8.243,-8.243 -4.554,0 -8.242,3.692 -8.242,8.243 0,4.554 3.688,8.246 8.242,8.246 4.551,0 8.243,-3.692 8.243,-8.246" /><path
         id="path54"
         style="fill:#fcd4c4;fill-opacity:1;fill-rule:nonzero;stroke:none"
         d="m 703.406,371.313 c 0,-4.551 -3.687,-8.243 -8.238,-8.243 -4.555,0 -8.246,3.692 -8.246,8.243 0,4.554 3.691,8.246 8.246,8.246 4.551,0 8.238,-3.692 8.238,-8.246" /><path
         id="path56"
         style="fill:#4a9a90;fill-opacity:1;fill-rule:nonzero;stroke:none"
         d="m 546.633,126.848 c 0,0 58.855,-77.2777 111.883,2.257 0,0 -44.727,-55.4566 -111.883,-2.257" /><path
         id="path58"
         style="fill:none;stroke:#ffffff;stroke-width:5;stroke-linecap:butt;stroke-linejoin:miter;stroke-miterlimit:10;stroke-dasharray:none;stroke-opacity:1"
         d="M 611.863,58.75 V 0" /><path
         id="path60"
         style="fill:#ffffff;fill-opacity:1;fill-rule:nonzero;stroke:none"
         d="m 620.527,53.9414 c 0,-6.9219 -4.164,-12.5195 -9.3,-12.5195 -5.141,0 -9.305,5.5976 -9.305,12.5195 0,6.9102 4.164,12.5078 9.305,12.5078 5.136,0 9.3,-5.5976 9.3,-12.5078" /></g></g></svg>